<?xml version="1.0" encoding="utf-8"?>
<!-- Generator: Adobe Illustrator 18.1.0, SVG Export Plug-In . SVG Version: 6.00 Build 0)  -->
<!DOCTYPE svg PUBLIC "-//W3C//DTD SVG 1.1//EN" "http://www.w3.org/Graphics/SVG/1.1/DTD/svg11.dtd">
<svg version="1.1" id="Layer_1_copy" xmlns="http://www.w3.org/2000/svg" xmlns:xlink="http://www.w3.org/1999/xlink" x="0px"
	 y="0px" viewBox="0 0 190 70" enable-background="new 0 0 190 70" xml:space="preserve">
<g>
	<polyline fill="#E18A26" points="27.3,8.5 30.2,17.4 39.6,17.4 36.7,8.5 27.3,8.5 	"/>
	<polyline fill="#E18A26" points="47.2,2.5 54.8,8 51.9,17 44.3,11.5 47.2,2.5 47.2,2.5 	"/>
	<polyline fill="#E18A26" points="15.1,18.3 22.7,23.8 19.8,32.7 12.2,27.2 15.1,18.3 	"/>
	<polyline fill="#E18A26" points="48.7,52.4 41.8,58.8 45.8,67.3 52.7,60.9 48.7,52.4 48.7,52.4 	"/>
	<polyline fill="#E18A26" points="14.1,40 9.8,48.4 0.5,46.9 4.8,38.6 14.1,40 	"/>
	<path fill="#546670" d="M76,28.2c-0.5-3.3-2.1-4.9-4.8-4.9c-2.6,0-4.1,1.7-4.1,4.1c0,2.5,2.5,3.7,4.6,4.6c3.8,1.5,6.7,2.7,6.7,6.9
		c0,3.4-2.2,6.6-7.9,6.6c-2.2,0-4.9-0.6-6.3-1.9l-0.3-5.2h1.1c0.8,3.6,2.8,5.9,5.7,5.9c2.8,0,4.6-1.5,4.6-4.3c0-2.6-2.7-4-5-4.9
		c-3.3-1.2-6-2.6-6-6.6c0-4.4,3.3-6.4,7.3-6.4c2.2,0,4.4,0.6,5.6,1.4v4.8H76"/>
	<path fill="#546670" d="M90.7,41.7c0,1.4,0.1,1.8,1.9,1.9l1.6,0.1v1.1H83.8v-1.1l1.6-0.1c1.8-0.1,1.9-0.5,1.9-1.9V23.9h-1.8
		c-3.7,0-4.2,0.8-4.7,4.5h-1.1v-5.7h18.6v5.7h-1.1c-0.4-3.7-1-4.5-4.7-4.5h-1.9V41.7"/>
	<path fill="#546670" d="M109.8,44.8v-1.1l1.5-0.1c1-0.1,1.2-0.4,0.8-1.4c-0.5-1.6-1.7-4.9-2.1-5.9h-7.1c-0.7,2.2-1.4,4.1-1.9,6
		c-0.2,0.8-0.2,1.2,0.8,1.3l1.7,0.2v1.1h-7.1v-1.1c2-0.1,2.3-0.5,3-2.2c2.3-6,4.7-12.8,6.8-19.1h2.6c1.8,5.3,5.1,14.6,6.8,19.4
		c0.6,1.7,0.9,1.8,2.8,1.9v1.1H109.8 M106.5,25.8h-0.1c-1,2.8-2.1,6.1-3.1,9.3h6.3C108.8,32.8,107.2,27.9,106.5,25.8z"/>
	<path fill="#546670" d="M131.2,28.2c-0.5-3.3-2.1-4.9-4.8-4.9c-2.6,0-4.1,1.7-4.1,4.1c0,2.5,2.5,3.7,4.6,4.6
		c3.8,1.5,6.7,2.7,6.7,6.9c0,3.4-2.2,6.6-7.9,6.6c-2.2,0-4.9-0.6-6.3-1.9l-0.3-5.2h1.1c0.8,3.6,2.8,5.9,5.7,5.9
		c2.8,0,4.6-1.5,4.6-4.3c0-2.6-2.7-4-5-4.9c-3.3-1.2-6-2.6-6-6.6c0-4.4,3.3-6.4,7.3-6.4c2.2,0,4.4,0.6,5.6,1.4v4.8H131.2"/>
	<path fill="#546670" d="M142.8,33.9v7.8c0,1.8,0.1,1.9,2.9,2.1v1.1h-9.1v-1.1c2.8-0.2,2.9-0.3,2.9-2.1v-16c0-1.8-0.1-1.9-2.9-2
		v-1.1h9.1v1.1c-2.8,0.2-2.9,0.3-2.9,2v6.9h10.9v-6.9c0-1.8-0.1-1.9-2.9-2v-1.1h9.1v1.1c-2.8,0.2-2.9,0.2-2.9,2v16
		c0,1.8,0.1,1.9,2.9,2.1v1.1h-9.1v-1.1c2.8-0.2,2.9-0.3,2.9-2.1v-7.8H142.8"/>
	<path fill="#546670" d="M67,55.1v3.5c0,0.8,0,0.8,1.3,0.9v0.5h-4v-0.5c1.2-0.1,1.3-0.1,1.3-0.9v-7.1c0-0.8,0-0.8-1.3-0.9v-0.5h4
		v0.5C67,50.6,67,50.7,67,51.4v3.1h4.9v-3.1c0-0.8,0-0.8-1.3-0.9v-0.5h4v0.5c-1.2,0.1-1.3,0.1-1.3,0.9v7.1c0,0.8,0,0.8,1.3,0.9v0.5
		h-4v-0.5c1.2-0.1,1.3-0.1,1.3-0.9v-3.5H67"/>
	<path fill="#546670" d="M80.6,49.8c3.2,0,4.8,2.1,4.8,5.2c0,3.1-1.6,5.2-4.8,5.2c-3.2,0-4.8-2.1-4.8-5.2
		C75.8,51.9,77.4,49.8,80.6,49.8L80.6,49.8 M80.6,50.4c-2.5,0-3.1,2.6-3.1,4.7c0,2.1,0.6,4.6,3.1,4.6c2.5,0,3.1-2.6,3.1-4.6
		C83.7,52.9,83.1,50.4,80.6,50.4L80.6,50.4z"/>
	<path fill="#546670" d="M91.3,58.6c0,0.6,0,0.8,0.8,0.9l0.7,0v0.5h-4.6v-0.5l0.7-0.1c0.8,0,0.8-0.2,0.8-0.8v-8H89
		c-1.6,0-1.9,0.3-2.1,2h-0.5v-2.5h8.3v2.5h-0.5c-0.2-1.7-0.4-2-2.1-2h-0.8V58.6"/>
	<path fill="#546670" d="M96.7,51.4c0-0.8,0-0.8-1.3-0.9v-0.5h7.2v2.4h-0.5c-0.2-1.5-0.5-1.8-2.2-1.8h-1.3c-0.5,0-0.5,0.1-0.5,0.5
		v3.4h1.9c1.2,0,1.3-0.4,1.4-1.3h0.5v3.2h-0.5c-0.1-0.9-0.2-1.3-1.4-1.3h-1.9v3.1c0,1,0.2,1.2,1.8,1.2c1.8,0,2.4-0.4,2.7-2.1h0.5
		l-0.3,2.6h-7.5v-0.5c1.2-0.1,1.3-0.1,1.3-0.9V51.4"/>
	<path fill="#546670" d="M107,58.2c0,0.9,0.2,1.2,1.8,1.2c1.5,0,2.2-0.3,2.6-2.2h0.5l-0.3,2.8h-7.3v-0.5c1.2-0.1,1.3-0.1,1.3-0.9
		v-7.1c0-0.8,0-0.8-1.3-0.9v-0.5h4.1v0.5c-1.3,0.1-1.4,0.1-1.4,0.9V58.2"/>
	<path fill="#546670" d="M118.3,58.6c0,0.8,0,0.8,1.3,0.9v0.5h-4v-0.5c1.2-0.1,1.3-0.1,1.3-0.9v-7.1c0-0.8,0-0.8-1.3-0.9v-0.5h4.4
		c2.5,0,3.1,1.1,3.1,2.4c0,1.4-1,2.2-2.3,2.4v0c1.5,0.4,1.9,1.4,2.1,2.7c0.1,1,0.4,1.7,1.5,1.8v0.5h-1.2c-0.9,0-1.4-0.3-1.6-1.2
		c-0.2-0.6-0.3-1.8-0.4-2.2c-0.3-1-1-1.3-1.8-1.3h-0.9V58.6 M118.3,54.7h1.1c1.4,0,2.1-0.6,2.1-2.1c0-1.9-1.2-2-2.2-2
		c-0.9,0-0.9,0.1-0.9,0.7V54.7z"/>
	<path fill="#546670" d="M126.1,51.4c0-0.8,0-0.8-1.3-0.9v-0.5h7.2v2.4h-0.5c-0.2-1.5-0.5-1.8-2.2-1.8h-1.3c-0.5,0-0.5,0.1-0.5,0.5
		v3.4h1.9c1.2,0,1.3-0.4,1.4-1.3h0.5v3.2h-0.5c-0.1-0.9-0.2-1.3-1.4-1.3h-1.9v3.1c0,1,0.2,1.2,1.8,1.2c1.8,0,2.4-0.4,2.7-2.1h0.5
		l-0.3,2.6h-7.5v-0.5c1.2-0.1,1.3-0.1,1.3-0.9V51.4"/>
	<path fill="#546670" d="M147.3,50.1v0.5c-0.9,0.1-1.1,0.1-1.3,0.9c-0.8,2.5-1.7,5.8-2.4,8.5h-1.2c-0.7-2.5-1.5-5.1-2.3-7.7h0
		c0,0-2.2,7.7-2.2,7.7h-1.2c-0.8-2.9-1.5-5.6-2.3-8.5c-0.2-0.8-0.4-0.9-1.2-0.9v-0.5h3.7v0.5l-0.7,0.1c-0.3,0-0.4,0.1-0.3,0.6
		c0.6,2.2,1.2,4.6,1.9,7h0c0-0.1,2.1-7.7,2.1-7.9h1.1c0.8,2.6,1.6,5.3,2.4,7.9h0c0.5-2,1.3-5,1.8-7c0.1-0.3,0-0.5-0.3-0.5l-0.9-0.1
		v-0.5H147.3"/>
	<path fill="#546670" d="M151,59.9v-0.5l0.6-0.1c0.5,0,0.5-0.2,0.4-0.6c-0.2-0.7-0.8-2.2-1-2.6h-3.2c-0.3,1-0.6,1.8-0.9,2.7
		c-0.1,0.4-0.1,0.5,0.4,0.6l0.7,0.1v0.5H145v-0.5c0.9,0,1-0.2,1.3-1c1-2.7,2.1-5.7,3-8.5h1.1c0.8,2.4,2.2,6.5,3,8.6
		c0.3,0.7,0.4,0.8,1.2,0.8v0.5H151 M149.5,51.5L149.5,51.5c-0.5,1.2-1,2.7-1.4,4.1h2.8C150.6,54.6,149.9,52.4,149.5,51.5z"/>
	<path fill="#546670" d="M157.7,58.6c0,0.8,0,0.8,1.3,0.9v0.5h-4v-0.5c1.2-0.1,1.3-0.1,1.3-0.9v-7.1c0-0.8,0-0.8-1.3-0.9v-0.5h4.4
		c2.5,0,3.1,1.1,3.1,2.4c0,1.4-1,2.2-2.3,2.4v0c1.5,0.4,1.9,1.4,2.1,2.7c0.1,1,0.4,1.7,1.5,1.8v0.5h-1.2c-0.9,0-1.4-0.3-1.6-1.2
		c-0.2-0.6-0.3-1.8-0.4-2.2c-0.3-1-1-1.3-1.8-1.3h-0.9V58.6 M157.7,54.7h1.1c1.4,0,2.1-0.6,2.1-2.1c0-1.9-1.2-2-2.2-2
		c-0.9,0-0.9,0.1-0.9,0.7V54.7z"/>
	<path fill="#546670" d="M169,50.1c1.7,0,3,0.3,4,1.2c0.9,0.8,1.2,2.1,1.2,3.6c0,3.5-2.2,5.1-5.5,5.1h-4.5v-0.5
		c1.2-0.1,1.3-0.1,1.3-0.9v-7.1c0-0.8,0-0.8-1.3-0.9v-0.5H169 M167,58.2c0,1.1,0.2,1.3,1.4,1.3c2.4,0,4.1-0.9,4.1-4.5
		c0-2.4-0.9-4.3-3.9-4.3c-1.5,0-1.6,0.1-1.6,0.8V58.2z"/>
	<path fill="#546670" d="M181,52.5c-0.2-1.4-0.9-2.2-2.1-2.2c-1.2,0-1.8,0.8-1.8,1.8c0,1.1,1.1,1.7,2.1,2c1.7,0.6,3,1.2,3,3.1
		c0,1.5-1,2.9-3.5,2.9c-1,0-2.2-0.3-2.8-0.8l-0.2-2.3h0.5c0.4,1.6,1.2,2.6,2.6,2.6c1.3,0,2-0.7,2-1.9c0-1.2-1.2-1.8-2.2-2.2
		c-1.5-0.5-2.7-1.1-2.7-2.9c0-1.9,1.5-2.8,3.3-2.8c1,0,2,0.3,2.5,0.6v2.1H181"/>
	<polyline fill="#E18A26" points="23.9,47.4 31.5,53 28.6,61.9 21,56.4 23.9,47.4 	"/>
	<polyline fill="#E18A26" points="53.6,30 50.7,21 41.3,21 44.2,30 53.6,30 	"/>
	<polyline fill="#E18A26" points="25.1,30 28,21 37.4,21 34.5,30 25.1,30 	"/>
	<polyline fill="#E18A26" points="51.1,47.8 58.7,42.2 55.8,33.3 48.2,38.8 51.1,47.8 51.1,47.8 	"/>
	<polyline fill="#E18A26" points="29.1,48.2 21.5,42.7 24.4,33.8 32,39.3 29.1,48.2 29.1,48.2 	"/>
	<polyline fill="#E18A26" points="46.6,49.6 39,55.1 31.4,49.6 39,44.1 46.6,49.6 46.6,49.6 	"/>
	<g>
		<path fill="#546670" d="M186.8,50.1c0.5,0,0.9,0.1,1.4,0.4c0.4,0.2,0.8,0.6,1,1c0.2,0.4,0.4,0.9,0.4,1.4c0,0.5-0.1,0.9-0.4,1.4
			c-0.2,0.4-0.6,0.8-1,1c-0.4,0.2-0.9,0.4-1.4,0.4c-0.5,0-0.9-0.1-1.4-0.4c-0.4-0.2-0.8-0.6-1-1c-0.2-0.4-0.4-0.9-0.4-1.4
			c0-0.5,0.1-0.9,0.4-1.4s0.6-0.8,1-1C185.9,50.2,186.3,50.1,186.8,50.1z M186.8,50.5c-0.4,0-0.8,0.1-1.1,0.3
			c-0.4,0.2-0.7,0.5-0.9,0.9c-0.2,0.4-0.3,0.8-0.3,1.2c0,0.4,0.1,0.8,0.3,1.1c0.2,0.4,0.5,0.7,0.9,0.9c0.4,0.2,0.8,0.3,1.1,0.3
			c0.4,0,0.8-0.1,1.2-0.3c0.4-0.2,0.7-0.5,0.9-0.9c0.2-0.4,0.3-0.7,0.3-1.1c0-0.4-0.1-0.8-0.3-1.2c-0.2-0.4-0.5-0.7-0.9-0.9
			C187.6,50.6,187.2,50.5,186.8,50.5z M185.6,54.4v-3h1c0.4,0,0.6,0,0.8,0.1c0.2,0.1,0.3,0.2,0.4,0.3c0.1,0.1,0.1,0.3,0.1,0.4
			c0,0.2-0.1,0.4-0.2,0.6c-0.2,0.2-0.4,0.3-0.6,0.3c0.1,0,0.2,0.1,0.3,0.2c0.1,0.1,0.3,0.3,0.4,0.6l0.4,0.6h-0.6l-0.3-0.5
			c-0.2-0.4-0.4-0.6-0.5-0.7c-0.1-0.1-0.2-0.1-0.4-0.1h-0.3v1.3H185.6z M186.1,52.7h0.6c0.3,0,0.5,0,0.6-0.1
			c0.1-0.1,0.2-0.2,0.2-0.3c0-0.1,0-0.2-0.1-0.2c0-0.1-0.1-0.1-0.2-0.2c-0.1,0-0.2-0.1-0.5-0.1h-0.5V52.7z"/>
	</g>
</g>
</svg>
